<svg xmlns="http://www.w3.org/2000/svg" viewBox="0 0 140 140" role="img" aria-label="Pixelated cherry blossom">
  <defs>
    <style>
      .px { shape-rendering: crispEdges; }
    </style>
  </defs>

  <!-- Pixel size: 10x10 -->
  <g class="px" transform="translate(0,0)">

    <!-- Light pink petals -->
    <g fill="#FFD1DC">
      <!-- top -->
      <rect x="60" y="0" width="10" height="10"></rect>
      <rect x="50" y="10" width="10" height="10"></rect>
      <rect x="60" y="10" width="10" height="10"></rect>
      <rect x="70" y="10" width="10" height="10"></rect>
      <rect x="40" y="20" width="10" height="10"></rect>
      <rect x="50" y="20" width="10" height="10"></rect>
      <rect x="60" y="20" width="10" height="10"></rect>
      <rect x="70" y="20" width="10" height="10"></rect>
      <rect x="80" y="20" width="10" height="10"></rect>
      <rect x="50" y="30" width="10" height="10"></rect>
      <rect x="70" y="30" width="10" height="10"></rect>

      <!-- left -->
      <rect x="0" y="60" width="10" height="10"></rect>
      <rect x="10" y="50" width="10" height="10"></rect>
      <rect x="10" y="60" width="10" height="10"></rect>
      <rect x="10" y="70" width="10" height="10"></rect>
      <rect x="20" y="40" width="10" height="10"></rect>
      <rect x="20" y="50" width="10" height="10"></rect>
      <rect x="20" y="60" width="10" height="10"></rect>
      <rect x="20" y="70" width="10" height="10"></rect>
      <rect x="20" y="80" width="10" height="10"></rect>
      <rect x="30" y="50" width="10" height="10"></rect>
      <rect x="30" y="70" width="10" height="10"></rect>

      <!-- right -->
      <rect x="120" y="60" width="10" height="10"></rect>
      <rect x="110" y="50" width="10" height="10"></rect>
      <rect x="110" y="60" width="10" height="10"></rect>
      <rect x="110" y="70" width="10" height="10"></rect>
      <rect x="100" y="40" width="10" height="10"></rect>
      <rect x="100" y="50" width="10" height="10"></rect>
      <rect x="100" y="60" width="10" height="10"></rect>
      <rect x="100" y="70" width="10" height="10"></rect>
      <rect x="100" y="80" width="10" height="10"></rect>
      <rect x="90" y="50" width="10" height="10"></rect>
      <rect x="90" y="70" width="10" height="10"></rect>

      <!-- bottom -->
      <rect x="60" y="120" width="10" height="10"></rect>
      <rect x="50" y="110" width="10" height="10"></rect>
      <rect x="60" y="110" width="10" height="10"></rect>
      <rect x="70" y="110" width="10" height="10"></rect>
      <rect x="40" y="100" width="10" height="10"></rect>
      <rect x="50" y="100" width="10" height="10"></rect>
      <rect x="60" y="100" width="10" height="10"></rect>
      <rect x="70" y="100" width="10" height="10"></rect>
      <rect x="80" y="100" width="10" height="10"></rect>
      <rect x="50" y="90" width="10" height="10"></rect>
      <rect x="70" y="90" width="10" height="10"></rect>
    </g>

    <!-- Accent pink -->
    <g fill="#FF8FB1">
      <rect x="60" y="30" width="10" height="10"></rect>
      <rect x="30" y="60" width="10" height="10"></rect>
      <rect x="90" y="60" width="10" height="10"></rect>
      <rect x="60" y="90" width="10" height="10"></rect>
      <rect x="40" y="40" width="10" height="10"></rect>
      <rect x="80" y="40" width="10" height="10"></rect>
      <rect x="40" y="80" width="10" height="10"></rect>
      <rect x="80" y="80" width="10" height="10"></rect>
    </g>

    <!-- Center -->
    <g fill="#FFF1A8">
      <rect x="50" y="50" width="10" height="10"></rect>
      <rect x="60" y="50" width="10" height="10"></rect>
      <rect x="70" y="50" width="10" height="10"></rect>
      <rect x="50" y="60" width="10" height="10"></rect>
      <rect x="60" y="60" width="10" height="10"></rect>
      <rect x="70" y="60" width="10" height="10"></rect>
      <rect x="50" y="70" width="10" height="10"></rect>
      <rect x="60" y="70" width="10" height="10"></rect>
      <rect x="70" y="70" width="10" height="10"></rect>
    </g>

    <!-- Center highlight -->
    <g fill="#FFC94A">
      <rect x="60" y="60" width="10" height="10"></rect>
    </g>

  </g>
</svg>
